<svg id="Capa_1" data-name="Capa 1" xmlns="http://www.w3.org/2000/svg" viewBox="0 0 14 10"><defs><style>.cls-1{fill:#fff;}</style></defs><title>envelope-white</title><path class="cls-1" d="M7,9,5.3,7.5l-5,4.2A.9.9,0,0,0,1,12H13a.9.9,0,0,0,.7-.3l-5-4.2Z" transform="translate(0 -2)"/><path class="cls-1" d="M13.7,2.3A.9.9,0,0,0,13,2H1a.9.9,0,0,0-.7.3L7,8Z" transform="translate(0 -2)"/><polygon class="cls-1" points="0 0.9 0 9.2 4.8 5.1 0 0.9"/><polygon class="cls-1" points="9.2 5.1 14 9.2 14 0.9 9.2 5.1"/></svg>