<svg id="Capa_1" data-name="Capa 1" xmlns="http://www.w3.org/2000/svg" viewBox="0 0 93.2 129.9"><defs><style>.cls-1{fill:#4a72b2;}</style></defs><title>favicon-quindez</title><path class="cls-1" d="M70.9,5.9a44.9,44.9,0,0,1,32.9,13.7,44.9,44.9,0,0,1,13.6,33,44.9,44.9,0,0,1-13.6,33A44.8,44.8,0,0,1,70.9,99.2,44.7,44.7,0,0,1,38,85.6a44.6,44.6,0,0,1-13.7-33A44.6,44.6,0,0,1,38,19.6,44.8,44.8,0,0,1,70.9,5.9Zm-20.7,26a28.6,28.6,0,0,0-8.6,20.7,28,28,0,0,0,8.6,20.6,28.1,28.1,0,0,0,20.7,8.5,28.1,28.1,0,0,0,20.6-8.5,28,28,0,0,0,8.6-20.6,28.6,28.6,0,0,0-8.6-20.7,28.2,28.2,0,0,0-20.6-8.6A28.2,28.2,0,0,0,50.2,31.9Z" transform="translate(-24.3 -5.9)"/><rect class="cls-1" x="75.8" y="46.7" width="17.4" height="83.25"/></svg>