<svg id="Capa_1" data-name="Capa 1" xmlns="http://www.w3.org/2000/svg" viewBox="0 0 50 50"><defs><style>.cls-1{fill:#1b1464;}.cls-2{fill:#fff;}</style></defs><title>several-icon</title><circle class="cls-1" cx="25" cy="25" r="24.5"/><path class="cls-2" d="M37.3,10.1H12.7a1.4,1.4,0,0,0-1.4,1.4V27.3H38.7V11.5A1.4,1.4,0,0,0,37.3,10.1Zm-11.5.7.2.2-.2.2a.2.2,0,0,1,0-.4Zm-.8-.2a.4.4,0,1,1-.4.4A.4.4,0,0,1,25,10.6ZM37.5,25.7a.4.4,0,0,1-.4.4H12.9a.4.4,0,0,1-.4-.4V12.3a.4.4,0,0,1,.4-.4H37.1a.4.4,0,0,1,.4.4Z"/><path class="cls-2" d="M26.1,20.3v-.5l.8-.3-.4-1.2-.8.2-.6-.8.5-.8-1.1-.7-.5.7a1.9,1.9,0,0,0-1-.3v-.9H21.7v.9a1.6,1.6,0,0,0-.9.3l-.6-.7-1,.7.5.8a1.6,1.6,0,0,0-.6.8l-.9-.2-.4,1.2.8.3v1l-.8.4.4,1.2.9-.3a2.4,2.4,0,0,0,.6.9l-.5.7,1,.8.6-.7.9.3V25h1.2v-.9l1-.3.5.7,1.1-.8-.5-.7.6-.9.8.3.4-1.2-.8-.4Zm-3.8,2.9a2.9,2.9,0,0,1,0-5.7,2.9,2.9,0,0,1,0,5.7Z"/><path class="cls-2" d="M24.7,20.3a2.4,2.4,0,1,1-4.8,0,2.4,2.4,0,1,1,4.8,0Z"/><path class="cls-2" d="M24.3,20.3a2,2,0,1,1-2-2A2,2,0,0,1,24.3,20.3Z"/><path class="cls-2" d="M32.1,17.5l.2-.9h-.6v-.4a.6.6,0,0,1-.1-.4l.6-.3-.4-.8-.6.2-.5-.5.3-.6-.8-.4-.4.5h-.7V13h-.9v.7a.9.9,0,0,0-.6.3l-.5-.5-.7.6.4.5-.3.7h-.7v.9h.6v.4a.8.8,0,0,0,.1.4l-.6.3.4.8.6-.2.5.5-.3.6.8.4L28,19h.7l.2.7h.9V19a.9.9,0,0,0,.7-.3l.5.5.6-.6-.4-.5a2.5,2.5,0,0,0,.4-.7Zm-3.2.9a2,2,0,0,1-2-2,2.1,2.1,0,1,1,4.1,0A2,2,0,0,1,28.9,18.4Z"/><circle class="cls-2" cx="28.9" cy="16.4" r="0.8"/><path class="cls-2" d="M18.3,34.4a3.1,3.1,0,0,0,.2-.7,4.5,4.5,0,0,1,.2-.8,1.1,1.1,0,0,1,.1-.5l.5-.3H30.7l.5.3a1.1,1.1,0,0,1,.1.5,4.5,4.5,0,0,1,.2.8,3.1,3.1,0,0,0,.2.7H43.2l-4.5-7.1H11.3L6.8,34.4H18.3Zm20.8-3.3.3.5c.1.1-.1.2-.3.2H36.4c-.3,0-.5-.1-.5-.2l-.3-.5c0-.1.1-.2.4-.2h2.6C38.8,30.9,39.1,31,39.1,31.1Zm-.3-.7c0,.1-.1.2-.3.2H35.8c-.2,0-.4-.1-.4-.2l-.2-.5c-.1-.1.1-.1.3-.1h3Zm-.6-1.1c0,.1-.1.2-.3.2H35.4l-.5-.2-.2-.4c0-.1.1-.2.3-.2h2.5c.2,0,.4.1.4.2Zm-3.5,1.1c.1.1-.1.2-.3.2H31.8l-.5-.2v-.5h3.4Zm-.1-2.6h2.8l.2.4c.1.1-.1.2-.3.2H34.9l-.4-.2-.2-.4Zm-.5,1.1.2.4c0,.1-.1.2-.3.2H31.5c-.2,0-.4-.1-.4-.2v-.4c-.1-.1.1-.2.3-.2h2.4ZM31,27.8h2.8v.4c.1.1-.1.2-.3.2H31.2c-.2,0-.4-.1-.4-.2v-.4Zm-.4,2.1v.5c0,.1-.1.2-.3.2H27.7c-.2,0-.4-.1-.4-.2v-.5h3.3Zm-.2-1v.4c0,.1-.2.2-.4.2H27.6c-.2,0-.4-.1-.4-.2v-.4c0-.1.1-.2.3-.2H30Zm-3-1.1h2.8v.4c.1.1-.1.2-.3.2H27.5c-.2,0-.4-.1-.4-.2v-.4Zm-3.9.1h3v.4l-.4.2H23.8l-.4-.2Zm-.1,1,.4-.2h2.4l.4.2v.4c0,.1-.1.2-.4.2H23.8c-.3,0-.4-.1-.4-.2Zm-.1,1h3.4v.5c0,.1-.2.2-.4.2H23.7c-.2,0-.4-.1-.4-.2Zm-3.5-2h3.1v.4c0,.1-.2.2-.4.2H20.1c-.2,0-.4-.1-.3-.2Zm-.2,1,.4-.2h2.5c.2,0,.3.1.3.2v.4c0,.1-.2.2-.4.2H19.9c-.2,0-.4-.1-.4-.2Zm.2.9h2.9v.5c0,.1-.2.2-.4.2H19.6c-.2,0-.3-.1-.3-.2v-.5Zm-3.6-1.9h3.1v.4c0,.1-.2.2-.4.2H16.4c-.2,0-.4-.1-.3-.2Zm-.3,1,.4-.2h2.4c.2,0,.4.1.3.2v.4c0,.1-.2.2-.4.2H16c-.2,0-.3-.1-.3-.2Zm2.9,1v.5l-.5.2H15.6c-.2,0-.4-.1-.3-.2v-.5h3.4Zm-6.4-1.6.2-.4h3.1l-.2.4c0,.1-.2.2-.4.2H12.7C12.5,28.5,12.3,28.4,12.4,28.3Zm-.6,1,.3-.4.4-.2H15c.2,0,.3.1.3.2l-.2.4-.5.2H12.1C11.9,29.5,11.8,29.4,11.8,29.3Zm2.3,2.3c0,.1-.2.2-.5.2H10.9c-.2,0-.4-.1-.3-.2l.3-.5c0-.1.3-.2.5-.2H14c.3,0,.4.1.4.2Zm.1-1H11.5c-.2,0-.3-.1-.3-.2l.3-.5h3c.2,0,.4,0,.3.1l-.2.5C14.6,30.5,14.4,30.6,14.2,30.6Zm.6,1,.2-.5c0-.1.3-.2.5-.2h19c.2,0,.5.1.5.2l.2.5c0,.1-.1.2-.3.2H15.1C14.9,31.8,14.8,31.7,14.8,31.6Z"/><path class="cls-2" d="M31.1,33v-.4h0c0-.1-.2-.2-.3-.2H19.3c-.1,0-.3.1-.3.2h0V33l-.3.8a3.2,3.2,0,0,1-.2.6H31.6a3.2,3.2,0,0,1-.2-.6Z"/><path class="cls-2" d="M6.8,34.4v1.5H43.2V34.4Zm32.1,1a.2.2,0,0,1-.2-.2c0-.2.1-.3.2-.3a.3.3,0,0,1,.3.3C39.2,35.3,39.1,35.4,38.9,35.4Zm1.1,0c-.2,0-.3-.1-.3-.2a.3.3,0,0,1,.3-.3c.1,0,.2.1.2.3A.2.2,0,0,1,40,35.4Zm1,0a.2.2,0,0,1-.2-.2c0-.2.1-.3.2-.3a.3.3,0,0,1,.3.3C41.3,35.3,41.2,35.4,41,35.4Z"/></svg>