<svg id="Capa_1" data-name="Capa 1" xmlns="http://www.w3.org/2000/svg" viewBox="0 0 50 50"><defs><style>.cls-1,.cls-2{fill:#fff;}.cls-2{fill-rule:evenodd;}</style></defs><title>icon-whatsapp</title><path class="cls-1" d="M25,48.5A23.5,23.5,0,1,1,48.5,25,23.5,23.5,0,0,1,25,48.5ZM25,4A21,21,0,1,0,46,25,21,21,0,0,0,25,4Z"/><path class="cls-2" d="M26.1,9.7A14.2,14.2,0,0,0,14.2,31.6L12,36.3a1.2,1.2,0,0,0,.2,1.3,1.4,1.4,0,0,0,1,.5h.3l5.9-1.6a14.5,14.5,0,0,0,6.7,1.7,14.2,14.2,0,0,0,0-28.4Zm0,25.9A12.1,12.1,0,0,1,20.2,34l-.6-.2h-.3l-3.9,1L16.7,32a1.2,1.2,0,0,0-.1-1.3,11.7,11.7,0,1,1,9.5,4.9Z"/><path class="cls-2" d="M31.6,26a3.1,3.1,0,0,0-2.1-.5A5.7,5.7,0,0,0,28.3,27c-.2.3-.4.3-.7.2a9.7,9.7,0,0,1-4.7-4c-.2-.3-.1-.5.1-.8a3.4,3.4,0,0,0,.9-1.4,4.7,4.7,0,0,0-.4-1.6c-.3-.6-.6-1.5-1.2-1.8a1.7,1.7,0,0,0-1.8.2,3.6,3.6,0,0,0-1.3,2.9c0,.3.1.6.1.9a7.8,7.8,0,0,0,.9,2.1l.9,1.4a13.8,13.8,0,0,0,4,3.6,11.5,11.5,0,0,0,2.5,1.2,5.6,5.6,0,0,0,2.9.5,3.5,3.5,0,0,0,2.6-2,1.6,1.6,0,0,0,.1-1C33,26.8,32.1,26.3,31.6,26Z"/></svg>