<svg id="Capa_1" data-name="Capa 1" xmlns="http://www.w3.org/2000/svg" viewBox="0 0 200 42"><defs><style>.cls-1{fill:none;}.cls-2{fill:#fff;}</style></defs><title>wladimirmoya-favicon-isotipo</title><rect class="cls-1" width="200" height="42"/><polygon points="49.9 10.9 46.5 10.9 53.7 26.3 55.4 22.6 49.9 10.9"/><polygon points="56.8 10.9 53.4 10.9 60.6 26.3 62.3 22.6 56.8 10.9"/><polygon points="63.7 10.9 60.2 10.9 62 14.6 63.7 10.9"/><polygon points="140.4 26.3 143.9 26.3 142.1 22.6 140.4 26.3"/><polygon points="143.6 10.9 140.1 10.9 147.3 26.3 149 22.6 143.6 10.9"/><polygon points="150.4 10.9 147 10.9 154.2 26.3 155.9 22.6 150.4 10.9"/><path d="M66,10.9h2.7V26.3H66Z"/><path d="M79.5,15.2h2.8V26.3H79.5V25.2a6.6,6.6,0,0,1-1.6,1.1,5.7,5.7,0,0,1-1.8.3,4.8,4.8,0,0,1-3.8-1.7,5.9,5.9,0,0,1-1.5-4.1,6,6,0,0,1,1.5-4.2A4.8,4.8,0,0,1,76,14.9a5.8,5.8,0,0,1,1.9.4,5.7,5.7,0,0,1,1.6,1.1Zm-2.9,2.3a2.9,2.9,0,0,0-2.2.9,3.2,3.2,0,0,0-.8,2.4,3.1,3.1,0,0,0,.8,2.3,2.7,2.7,0,0,0,2.2,1,3.1,3.1,0,0,0,2.2-.9,4.1,4.1,0,0,0,.8-2.4,3.6,3.6,0,0,0-.8-2.4A3.1,3.1,0,0,0,76.6,17.5Z"/><path d="M93.3,10.9h2.8V26.3H93.3V25.2a5.1,5.1,0,0,1-1.6,1.1l-1.8.3a4.6,4.6,0,0,1-3.7-1.7,5.6,5.6,0,0,1-1.6-4.1,6,6,0,0,1,1.5-4.2,5,5,0,0,1,3.7-1.7,5.8,5.8,0,0,1,1.9.4,5.7,5.7,0,0,1,1.6,1.1Zm-2.9,6.6a2.9,2.9,0,0,0-2.2.9,3.6,3.6,0,0,0-.8,2.4,3.6,3.6,0,0,0,.8,2.3,2.7,2.7,0,0,0,2.2,1,2.9,2.9,0,0,0,2.2-.9,3.5,3.5,0,0,0,.8-2.4,3.2,3.2,0,0,0-.8-2.4A2.9,2.9,0,0,0,90.4,17.5Z"/><path d="M100,10.6a1.8,1.8,0,0,1,1.3.6,1.7,1.7,0,0,1,.5,1.3,1.8,1.8,0,0,1-.5,1.2,1.7,1.7,0,0,1-1.3.5,1.3,1.3,0,0,1-1.2-.5,1.6,1.6,0,0,1-.6-1.3,1.4,1.4,0,0,1,.6-1.2A1.4,1.4,0,0,1,100,10.6Zm-1.4,4.6h2.8V26.3H98.6Z"/><path d="M103.9,15.2h2.8v1.3a6.1,6.1,0,0,1,1.6-1.2,5.8,5.8,0,0,1,1.9-.4,4.1,4.1,0,0,1,1.9.5,5,5,0,0,1,1.4,1.5,4.2,4.2,0,0,1,3.7-2,3.7,3.7,0,0,1,2.1.6,2.9,2.9,0,0,1,1.3,1.4,9.5,9.5,0,0,1,.4,2.9v6.5h-2.8V20.7a5.1,5.1,0,0,0-.5-2.6,1.7,1.7,0,0,0-1.4-.6,2,2,0,0,0-1.3.4,1.5,1.5,0,0,0-.8,1.1,6.7,6.7,0,0,0-.3,2.3v5h-2.8V20.9a5.5,5.5,0,0,0-.3-2.1,1.4,1.4,0,0,0-.6-1,2,2,0,0,0-1.1-.3,1.7,1.7,0,0,0-1.2.4A2.4,2.4,0,0,0,107,19a7,7,0,0,0-.3,2.4v4.9h-2.8Z"/><path d="M124.7,10.6a1.8,1.8,0,0,1,1.3.6,1.7,1.7,0,0,1,.5,1.3,1.8,1.8,0,0,1-.5,1.2,1.7,1.7,0,0,1-1.3.5,1.3,1.3,0,0,1-1.2-.5,1.6,1.6,0,0,1-.6-1.3,1.4,1.4,0,0,1,.6-1.2A1.4,1.4,0,0,1,124.7,10.6Zm-1.4,4.6h2.8V26.3h-2.8Z"/><path d="M133,15.2a2.1,2.1,0,0,1,1.3.5,2.1,2.1,0,0,1,.5,1.3,1.9,1.9,0,0,1-.5,1.3,1.7,1.7,0,0,1-1.3.5,1.3,1.3,0,0,1-1.2-.5,1.7,1.7,0,0,1,0-2.6A1.7,1.7,0,0,1,133,15.2Z"/><rect x="128.2" y="15.2" width="2.8" height="11.12"/><path d="M165.3,14.9a6,6,0,0,1,2.9.8,5,5,0,0,1,2.2,2.1,6.1,6.1,0,0,1,.8,3,6,6,0,0,1-.8,2.9,5.3,5.3,0,0,1-2.1,2.1,5.2,5.2,0,0,1-3,.8,5.3,5.3,0,0,1-4.1-1.7,5.7,5.7,0,0,1-1.7-4.1,5.8,5.8,0,0,1,5.8-5.9Zm0,2.7a2.7,2.7,0,0,0-2.1.9,3,3,0,0,0-.9,2.3,3.6,3.6,0,0,0,.8,2.3,3.1,3.1,0,0,0,4.4,0,3.2,3.2,0,0,0,.9-2.3,3.2,3.2,0,0,0-.9-2.4A3.3,3.3,0,0,0,165.3,17.6Z"/><path d="M172.2,15.2h2.9l2.9,7,3.1-7H184l-7,15.2h-2.8l2.2-4.9Z"/><path d="M193.8,15.2h2.8V26.3h-2.8V25.2a5.1,5.1,0,0,1-1.6,1.1,5.7,5.7,0,0,1-1.8.3,4.6,4.6,0,0,1-3.7-1.7,5.6,5.6,0,0,1-1.6-4.1,6,6,0,0,1,1.5-4.2,5,5,0,0,1,3.7-1.7,5.8,5.8,0,0,1,1.9.4,5.7,5.7,0,0,1,1.6,1.1Zm-2.9,2.3a2.9,2.9,0,0,0-2.2.9,3.6,3.6,0,0,0-.8,2.4,3.6,3.6,0,0,0,.8,2.3,2.7,2.7,0,0,0,2.2,1,2.9,2.9,0,0,0,2.2-.9,4.1,4.1,0,0,0,.8-2.4,3.6,3.6,0,0,0-.8-2.4A2.9,2.9,0,0,0,190.9,17.5Z"/><rect x="-4.4" y="-2.1" width="46.2" height="46.18"/><polygon class="cls-2" points="5.6 35.2 11.9 35.2 8.7 28.4 5.6 35.2"/><polygon class="cls-2" points="11.3 6.8 5 6.8 18.3 35.2 21.4 28.4 11.3 6.8"/><polygon class="cls-2" points="24 6.8 17.7 6.8 31 35.2 34.2 28.4 24 6.8"/><polygon class="cls-2" points="36.8 6.8 30.4 6.8 33.6 13.6 36.8 6.8"/></svg>