<svg id="Capa_1" data-name="Capa 1" xmlns="http://www.w3.org/2000/svg" viewBox="0 0 150.1 19.8"><title>wm-logotipo</title><polygon points="3.4 0.3 0 0.3 7.2 15.7 8.9 12 3.4 0.3"/><polygon points="10.3 0.3 6.9 0.3 14.1 15.7 15.8 12 10.3 0.3"/><polygon points="17.2 0.3 13.7 0.3 15.5 4 17.2 0.3"/><polygon points="93.9 15.7 97.4 15.7 95.6 12 93.9 15.7"/><polygon points="97.1 0.3 93.6 0.3 100.8 15.7 102.5 12 97.1 0.3"/><polygon points="103.9 0.3 100.5 0.3 107.7 15.7 109.4 12 103.9 0.3"/><path d="M22.7,2.4h2.7V17.8H22.7Z" transform="translate(-3.2 -2.1)"/><path d="M36.2,6.7H39V17.8H36.2V16.7a9.1,9.1,0,0,1-1.6,1.1,5.7,5.7,0,0,1-1.8.3A5.2,5.2,0,0,1,29,16.4a6.1,6.1,0,0,1-1.5-4.1A6.6,6.6,0,0,1,29,8.1a4.8,4.8,0,0,1,3.7-1.7,5.8,5.8,0,0,1,1.9.4,5.7,5.7,0,0,1,1.6,1.1ZM33.3,9a3.1,3.1,0,0,0-2.2.9,3.1,3.1,0,0,0-.8,2.4,3.2,3.2,0,0,0,.8,2.3,2.8,2.8,0,0,0,2.2,1,3.1,3.1,0,0,0,2.2-.9,4.1,4.1,0,0,0,.8-2.4,3.5,3.5,0,0,0-.8-2.4A3.1,3.1,0,0,0,33.3,9Z" transform="translate(-3.2 -2.1)"/><path d="M50,2.4h2.8V17.8H50V16.7a4.6,4.6,0,0,1-1.6,1.1l-1.8.3a4.8,4.8,0,0,1-3.7-1.7,5.7,5.7,0,0,1-1.6-4.1,6.6,6.6,0,0,1,1.5-4.2,5,5,0,0,1,3.7-1.7,5.8,5.8,0,0,1,1.9.4A5.7,5.7,0,0,1,50,7.9ZM47.1,9a3.1,3.1,0,0,0-2.2.9,4.1,4.1,0,0,0-.8,2.4,4,4,0,0,0,.8,2.3,2.8,2.8,0,0,0,2.2,1,3.1,3.1,0,0,0,2.2-.9,3.1,3.1,0,0,0,.8-2.4,3.1,3.1,0,0,0-.8-2.4A3.1,3.1,0,0,0,47.1,9Z" transform="translate(-3.2 -2.1)"/><path d="M56.7,2.1a1.6,1.6,0,0,1,1.3.6A1.5,1.5,0,0,1,58.5,4,1.8,1.8,0,0,1,58,5.2a1.9,1.9,0,0,1-1.3.5,1.2,1.2,0,0,1-1.2-.5,1.6,1.6,0,0,1-.6-1.3,1.4,1.4,0,0,1,.6-1.2A1.4,1.4,0,0,1,56.7,2.1ZM55.3,6.7h2.8V17.8H55.3Z" transform="translate(-3.2 -2.1)"/><path d="M60.6,6.7h2.8V8A6.1,6.1,0,0,1,65,6.8a6.5,6.5,0,0,1,1.9-.4,4.1,4.1,0,0,1,1.9.5,4,4,0,0,1,1.4,1.5,4.3,4.3,0,0,1,3.7-2A3.7,3.7,0,0,1,76,7a2.5,2.5,0,0,1,1.3,1.4,9.2,9.2,0,0,1,.4,2.9v6.5H74.9V12.2a4.7,4.7,0,0,0-.5-2.6A1.7,1.7,0,0,0,73,9a2,2,0,0,0-1.3.4,1.5,1.5,0,0,0-.8,1.1,8.5,8.5,0,0,0-.3,2.3v5H67.8V12.4a3.9,3.9,0,0,0-.3-2.1,1.1,1.1,0,0,0-.6-1A2,2,0,0,0,65.8,9a1.7,1.7,0,0,0-1.2.4,3.1,3.1,0,0,0-.9,1.1,9.9,9.9,0,0,0-.3,2.4v4.9H60.6Z" transform="translate(-3.2 -2.1)"/><path d="M81.4,2.1a1.6,1.6,0,0,1,1.3.6A1.5,1.5,0,0,1,83.2,4a1.8,1.8,0,0,1-.5,1.2,1.9,1.9,0,0,1-1.3.5,1.2,1.2,0,0,1-1.2-.5,1.6,1.6,0,0,1-.6-1.3,1.4,1.4,0,0,1,.6-1.2A1.4,1.4,0,0,1,81.4,2.1ZM80,6.7h2.8V17.8H80Z" transform="translate(-3.2 -2.1)"/><path d="M89.7,6.7a1.9,1.9,0,0,1,1.3.5,2.1,2.1,0,0,1,.5,1.3A2.1,2.1,0,0,1,91,9.8a1.9,1.9,0,0,1-1.3.5,1.2,1.2,0,0,1-1.2-.5,1.7,1.7,0,0,1-.2-2.4l.2-.2A1.8,1.8,0,0,1,89.7,6.7Z" transform="translate(-3.2 -2.1)"/><rect x="81.7" y="4.6" width="2.8" height="11.12"/><path d="M122,6.4a6,6,0,0,1,2.9.8,5.6,5.6,0,0,1,2.2,2.1,6.1,6.1,0,0,1,.8,3,6,6,0,0,1-.8,2.9,5.3,5.3,0,0,1-2.1,2.1,5.2,5.2,0,0,1-3,.8,5.4,5.4,0,0,1-4.1-1.7,5.9,5.9,0,0,1,4-10Zm0,2.7a2.7,2.7,0,0,0-2.1.9,3.2,3.2,0,0,0-.9,2.3,4,4,0,0,0,.8,2.3,3.1,3.1,0,0,0,4.4,0h0a3.2,3.2,0,0,0,.9-2.3,3,3,0,0,0-.9-2.4A3.5,3.5,0,0,0,122,9.1Z" transform="translate(-3.2 -2.1)"/><path d="M128.9,6.7h2.9l2.9,7,3.1-7h2.9l-7,15.2h-2.8l2.2-4.9Z" transform="translate(-3.2 -2.1)"/><path d="M150.5,6.7h2.8V17.8h-2.8V16.7a4.6,4.6,0,0,1-1.6,1.1,5.7,5.7,0,0,1-1.8.3,4.8,4.8,0,0,1-3.7-1.7,5.7,5.7,0,0,1-1.6-4.1,6.6,6.6,0,0,1,1.5-4.2A5,5,0,0,1,147,6.4a5.8,5.8,0,0,1,1.9.4,5.7,5.7,0,0,1,1.6,1.1ZM147.6,9a3.1,3.1,0,0,0-2.2.9,4.1,4.1,0,0,0-.8,2.4,4,4,0,0,0,.8,2.3,2.8,2.8,0,0,0,2.2,1,3.1,3.1,0,0,0,2.2-.9,4.1,4.1,0,0,0,.8-2.4,3.5,3.5,0,0,0-.8-2.4,3.1,3.1,0,0,0-2.2-.9Z" transform="translate(-3.2 -2.1)"/></svg>